<svg id="visual" viewBox="0 0 960 540" width="960" height="540" xmlns="http://www.w3.org/2000/svg"
    xmlns:xlink="http://www.w3.org/1999/xlink" version="1.1">
    <rect x="0" y="0" width="960" height="540" fill="#001220"></rect>
    <defs>
        <linearGradient id="grad1_0" x1="43.8%" y1="0%" x2="100%" y2="100%">
            <stop offset="14.444444444444446%" stop-color="#001220" stop-opacity="1"></stop>
            <stop offset="85.55555555555554%" stop-color="#001220" stop-opacity="1"></stop>
        </linearGradient>
    </defs>
    <defs>
        <linearGradient id="grad2_0" x1="0%" y1="0%" x2="56.3%" y2="100%">
            <stop offset="14.444444444444446%" stop-color="#001220" stop-opacity="1"></stop>
            <stop offset="85.55555555555554%" stop-color="#001220" stop-opacity="1"></stop>
        </linearGradient>
    </defs>
    <g transform="translate(960, 0)">
        <path
            d="M0 324C-49 302.8 -98 281.6 -148.5 257.2C-199 232.9 -251.1 205.4 -280.6 162C-310.1 118.6 -317 59.3 -324 0L0 0Z"
            fill="#FCAF3C"></path>
    </g>
    <g transform="translate(0, 540)">
        <path
            d="M0 -324C61.7 -318.4 123.5 -312.9 162 -280.6C200.5 -248.3 215.9 -189.2 239 -138C262.2 -86.8 293.1 -43.4 324 0L0 0Z"
            fill="#FCAF3C"></path>
    </g>
</svg>