<svg id="visual" viewBox="0 0 960 540" width="960" height="540" xmlns="http://www.w3.org/2000/svg" xmlns:xlink="http://www.w3.org/1999/xlink" version="1.1"><rect x="0" y="0" width="960" height="540" fill="#001220"></rect><defs><linearGradient id="grad1_0" x1="43.8%" y1="100%" x2="100%" y2="0%"><stop offset="14.444444444444446%" stop-color="#001220" stop-opacity="1"></stop><stop offset="85.55555555555554%" stop-color="#001220" stop-opacity="1"></stop></linearGradient></defs><defs><linearGradient id="grad2_0" x1="0%" y1="100%" x2="56.3%" y2="0%"><stop offset="14.444444444444446%" stop-color="#001220" stop-opacity="1"></stop><stop offset="85.55555555555554%" stop-color="#001220" stop-opacity="1"></stop></linearGradient></defs><g transform="translate(960, 540)"><path d="M-324 0C-298.6 -46.6 -273.2 -93.2 -249.4 -144C-225.6 -194.8 -203.3 -249.9 -162 -280.6C-120.7 -311.3 -60.3 -317.6 0 -324L0 0Z" fill="#FCAF3C"></path></g><g transform="translate(0, 0)"><path d="M324 0C319.2 63.1 314.5 126.2 280.6 162C246.7 197.8 183.6 206.2 132 228.6C80.4 251.1 40.2 287.5 0 324L0 0Z" fill="#FCAF3C"></path></g></svg>