<svg width="25" height="24" viewBox="0 0 25 24" fill="none" xmlns="http://www.w3.org/2000/svg">
<g clip-path="url(#clip0_4004_9202)">
<path d="M18.5 12.2346C18.4433 12.3848 18.3624 12.5135 18.2035 12.5759C17.9141 12.6893 17.5979 12.4966 17.5658 12.1852C17.5611 12.1388 17.5625 12.0914 17.5625 12.0448C17.5625 10.9823 17.5637 9.91992 17.5618 8.85727C17.5611 8.37938 17.2745 8.00438 16.8366 7.90172C16.7799 7.88836 16.7209 7.87945 16.6627 7.87875C16.4523 7.87594 16.242 7.87758 16.0147 7.87758C16.0147 8.04024 16.0205 8.19891 16.0135 8.35711C15.9973 8.72367 15.6048 8.93227 15.2982 8.73891C15.1555 8.64891 15.0835 8.51461 15.0795 8.34703C15.0758 8.19516 15.0788 8.04328 15.0788 7.8832H12.9455C12.9455 8.00789 12.9455 8.13141 12.9455 8.25516C12.9455 8.59547 12.766 8.80969 12.4798 8.81156C12.1895 8.81344 12.008 8.59758 12.008 8.24953C12.008 8.1293 12.008 8.00883 12.008 7.8818H9.8982C9.8982 8.03203 9.90102 8.18649 9.8975 8.3407C9.89281 8.55281 9.76789 8.72414 9.57875 8.78649C9.27688 8.88609 8.97477 8.67469 8.96258 8.35149C8.95672 8.19656 8.96164 8.04117 8.96164 7.86281C8.68508 7.87641 8.41602 7.86023 8.15914 7.90875C7.74008 7.98774 7.46281 8.35266 7.43914 8.79211C7.4375 8.82328 7.43773 8.85469 7.43773 8.88586C7.43773 11.2765 7.43773 13.6669 7.4375 16.0575C7.4375 16.4634 7.59523 16.7845 7.96906 16.9591C8.11531 17.0273 8.2918 17.0573 8.45492 17.0583C9.72055 17.066 10.9862 17.0634 12.2516 17.0616C12.403 17.0616 12.5384 17.0941 12.647 17.2043C12.8722 17.4333 12.8033 17.8144 12.5122 17.9536C12.4775 17.9702 12.4416 17.9848 12.4065 18.0002H8.16406C8.14672 17.993 8.13008 17.9822 8.11203 17.9791C7.4532 17.8725 6.97203 17.5198 6.68469 16.92C6.59727 16.7379 6.56023 16.5314 6.5 16.3362C6.5 13.758 6.5 11.1799 6.5 8.6018C6.5075 8.58047 6.51875 8.55984 6.52227 8.53781C6.61461 7.96523 6.90875 7.52602 7.39742 7.21664C7.7457 6.99609 8.13102 6.92344 8.53766 6.9368C8.67641 6.94125 8.81539 6.9375 8.96094 6.9375C8.96094 6.8093 8.96727 6.69633 8.95977 6.58406C8.94031 6.29391 9.05656 6.09539 9.33594 6H9.52344C9.80281 6.09539 9.91906 6.29391 9.89961 6.58383C9.89188 6.69867 9.89844 6.81469 9.89844 6.92953H12.0078C12.0078 6.80906 12.0141 6.69609 12.0066 6.58383C11.9872 6.29391 12.1034 6.09539 12.3828 6H12.5703C12.8497 6.09539 12.9659 6.29391 12.9465 6.58383C12.9387 6.69867 12.9453 6.81469 12.9453 6.92953H15.0781C15.0781 6.80906 15.0845 6.69609 15.077 6.58383C15.0575 6.29391 15.1737 6.09539 15.4531 6H15.6406C15.92 6.09539 16.0363 6.29414 16.0168 6.58406C16.0091 6.69891 16.0156 6.81492 16.0156 6.93961C16.2528 6.93961 16.4752 6.92813 16.6962 6.94172C17.4303 6.98695 17.9745 7.33898 18.3045 7.99524C18.3988 8.18274 18.4365 8.39859 18.5 8.60156V12.2344V12.2346Z" fill="#888888"/>
<path d="M15.0078 17.9999C14.6206 17.9421 14.3391 17.7128 14.0736 17.4447C13.67 17.0371 13.2544 16.6413 12.8434 16.2412C12.6987 16.1003 12.6263 15.9379 12.6868 15.7347C12.7768 15.4321 13.1366 15.3039 13.3958 15.4832C13.4403 15.5142 13.4804 15.5524 13.5193 15.5903C13.9693 16.0289 14.4188 16.4678 14.8683 16.9068C15.0966 17.1297 15.2328 17.1187 15.4161 16.863C16.1494 15.8385 16.8823 14.8136 17.6166 13.7896C17.8142 13.514 18.1297 13.4631 18.3483 13.6783C18.4147 13.7435 18.4501 13.8398 18.4998 13.9218V14.1093C18.4571 14.1876 18.4222 14.2713 18.3708 14.3432C17.623 15.3918 16.8727 16.4388 16.123 17.486C15.9657 17.7056 15.7594 17.8591 15.5016 17.9413C15.4316 17.9636 15.3598 17.9805 15.2888 17.9999H15.0076H15.0078Z" fill="#888888"/>
<path d="M9.42406 11.3891C9.16648 11.3861 8.95718 11.1702 8.96187 10.9126C8.96656 10.6551 9.18382 10.4469 9.44117 10.4533C9.69406 10.4596 9.89914 10.6708 9.8975 10.9239C9.89609 11.1815 9.68164 11.3922 9.42406 11.3891Z" fill="#888888"/>
<path d="M11.4589 11.3888C11.2013 11.3834 10.9939 11.1654 11.0012 10.9081C11.0082 10.6505 11.2273 10.4445 11.4847 10.4534C11.7376 10.4621 11.9405 10.6749 11.9368 10.928C11.933 11.1856 11.7165 11.3944 11.4589 11.3888Z" fill="#888888"/>
<path d="M13.5036 11.3889C13.246 11.3865 13.036 11.1716 13.0398 10.914C13.0435 10.6564 13.2601 10.4476 13.5176 10.4532C13.7705 10.4586 13.9763 10.6693 13.9756 10.9225C13.9749 11.1803 13.7612 11.3914 13.5036 11.3891V11.3889Z" fill="#888888"/>
<path d="M15.5509 10.4531C15.8085 10.4553 16.0187 10.6704 16.0147 10.928C16.011 11.1856 15.7944 11.3944 15.537 11.389C15.2842 11.3836 15.0784 11.1731 15.0791 10.92C15.0795 10.6622 15.2933 10.451 15.5509 10.4531Z" fill="#888888"/>
<path d="M9.42782 13.4279C9.17001 13.4267 8.95907 13.2127 8.96188 12.9551C8.96469 12.6976 9.18008 12.4878 9.43766 12.4923C9.69079 12.4965 9.89728 12.706 9.89774 12.9591C9.89821 13.2167 9.68563 13.4291 9.42782 13.4279Z" fill="#888888"/>
<path d="M11.9366 12.964C11.9345 13.2216 11.7193 13.4318 11.4617 13.4278C11.2042 13.4241 10.9953 13.2075 11.0007 12.9502C11.0061 12.6973 11.2166 12.4915 11.4697 12.4922C11.7275 12.4927 11.9387 12.7064 11.9366 12.964Z" fill="#888888"/>
<path d="M13.9756 12.9642C13.9733 13.2218 13.7583 13.4318 13.5005 13.428C13.243 13.4243 13.0341 13.2077 13.0398 12.9502C13.0451 12.6973 13.2558 12.4915 13.509 12.4922C13.7668 12.4929 13.978 12.7066 13.9756 12.9642Z" fill="#888888"/>
<path d="M15.5473 13.4278C15.2898 13.4281 15.0777 13.2153 15.0788 12.9577C15.0802 12.7001 15.2945 12.4892 15.552 12.4922C15.8052 12.495 16.0128 12.7036 16.0147 12.9565C16.0166 13.2141 15.8052 13.4276 15.5473 13.4278Z" fill="#888888"/>
<path d="M9.43086 15.4671C9.17328 15.4678 8.9607 15.2553 8.96164 14.9974C8.96258 14.7396 9.17656 14.5287 9.43414 14.5313C9.68727 14.5339 9.89516 14.742 9.8975 14.9951C9.89985 15.2527 9.68868 15.4664 9.43086 15.4671Z" fill="#888888"/>
<path d="M11.9366 15.0009C11.9356 15.2588 11.7216 15.4697 11.4641 15.4671C11.2065 15.4645 10.9967 15.2491 11.0007 14.9916C11.0047 14.7384 11.2142 14.532 11.4673 14.5313C11.7249 14.5305 11.9375 14.7431 11.9366 15.0009Z" fill="#888888"/>
</g>
<defs>
<clipPath id="clip0_4004_9202">
<rect width="12" height="12" fill="white" transform="translate(6.5 6)"/>
</clipPath>
</defs>
</svg>
