<svg width="25" height="24" viewBox="0 0 25 24" fill="none" xmlns="http://www.w3.org/2000/svg">
<rect width="24" height="24" transform="translate(0.5)" fill="white"/>
<g clip-path="url(#clip0_4004_9194)">
<path d="M10.8768 14.1953C11.039 14.5815 11.3092 14.9014 11.5735 15.223C11.844 15.5525 12.1283 15.8702 12.4069 16.1925C12.4181 16.2054 12.4318 16.2162 12.4538 16.2374C12.4833 16.1247 12.511 16.022 12.5369 15.919C12.5898 15.7076 12.6403 15.4954 12.6946 15.2844C12.7076 15.2334 12.7027 15.2007 12.6602 15.1612C12.5043 15.0166 12.4822 14.821 12.4759 14.6128H13.4754C13.4733 14.8242 13.4463 15.0227 13.2827 15.176C13.2637 15.1939 13.2452 15.232 13.2504 15.2549C13.3279 15.574 13.4099 15.8921 13.4912 16.2101C13.4926 16.2151 13.4985 16.2187 13.514 16.2359C14.0701 15.5773 14.682 14.9678 15.0889 14.1967C15.4597 14.2291 15.8403 14.2628 16.2209 14.2951C17.1187 14.3712 17.7439 14.8551 18.1631 15.6508C18.3597 16.0238 18.5135 16.4147 18.6103 16.8257C18.7035 17.2212 18.6148 17.7442 18.1378 18.0737C17.7863 18.3164 17.3945 18.4596 16.9905 18.5716C16.3288 18.755 15.6521 18.8483 14.9708 18.9112C13.9979 19.0005 13.0233 19.0228 12.048 18.9804C11.0317 18.9363 10.0199 18.848 9.02989 18.5892C8.67559 18.4966 8.33004 18.3781 8.00867 18.1947C7.94244 18.157 7.87795 18.1154 7.81557 18.0712C7.39047 17.7697 7.23347 17.3422 7.34351 16.8418C7.48019 16.2216 7.73216 15.6465 8.12362 15.1433C8.49826 14.6619 8.98959 14.3981 9.57976 14.3191C9.79073 14.2908 10.0035 14.2732 10.2155 14.2531C10.4331 14.2326 10.6507 14.2151 10.8768 14.1957V14.1953Z" fill="#888888"/>
<path d="M9.34634 7.15588C9.34915 7.24095 9.34004 7.307 9.43361 7.35294C9.57028 7.42042 9.57624 7.62215 9.45078 7.71261C9.40137 7.74814 9.39331 7.7826 9.39751 7.83788C9.44798 8.55685 9.49353 9.27618 9.5475 9.99479C9.56468 10.2238 9.503 10.4327 9.43186 10.642C9.40487 10.7213 9.37403 10.7992 9.33723 10.8986C9.30464 10.8577 9.28396 10.8423 9.27836 10.8222C9.21562 10.5957 9.13222 10.372 9.10208 10.1409C9.07755 9.95495 9.1168 9.76004 9.13011 9.56908C9.17042 8.98435 9.21247 8.39999 9.25032 7.81491C9.25242 7.78511 9.22929 7.74312 9.20511 7.72409C9.06668 7.61389 9.07404 7.41827 9.2314 7.34181C9.31305 7.30197 9.29833 7.23557 9.29903 7.1767C9.29903 7.15121 9.25417 7.11783 9.22298 7.10132C9.14028 7.05717 9.04986 7.02738 8.97031 6.97856C8.83153 6.89313 8.83153 6.77575 8.9654 6.68315C9.0036 6.65658 9.04706 6.63684 9.08981 6.61782C10.2302 6.1117 11.3709 5.60523 12.513 5.10163C12.82 4.9663 13.133 4.96594 13.4403 5.10163C14.5797 5.60415 15.7179 6.10955 16.8562 6.61459C16.907 6.6372 16.9582 6.66125 17.0031 6.69391C17.1159 6.77575 17.117 6.88093 17.0062 6.9642C16.9691 6.9922 16.926 7.01338 16.8836 7.0324C16.517 7.19572 16.1501 7.3594 15.7821 7.51949C15.7257 7.5439 15.7029 7.57333 15.7036 7.63794C15.7067 7.93982 15.7008 8.24205 15.7074 8.54428C15.7095 8.6412 15.7411 8.7374 15.7604 8.83395C15.8283 9.17603 15.8469 9.5217 15.8301 9.86952C15.8276 9.92336 15.8417 9.95854 15.8795 10.0009C15.9289 10.0558 15.9727 10.1283 15.9878 10.2005C16.0919 10.6937 16.0085 11.1563 15.7505 11.5853C15.7267 11.6251 15.6948 11.6704 15.6556 11.6883C15.5574 11.7335 15.5333 11.824 15.4975 11.9116C15.2329 12.5595 14.8783 13.1453 14.3617 13.6158C14.0242 13.9235 13.6443 14.15 13.1873 14.2135C12.7254 14.2777 12.3073 14.1496 11.9211 13.898C11.4764 13.6079 11.1277 13.2178 10.8582 12.7601C10.6809 12.4593 10.5431 12.1345 10.3865 11.8208C10.3728 11.7935 10.3532 11.7683 10.3318 11.7472C10.2617 11.6779 10.1692 11.6233 10.1212 11.5411C9.8885 11.1438 9.81946 10.7102 9.89445 10.2547C9.91443 10.1333 9.95123 10.0149 10.077 9.9553C10.0914 9.94848 10.1005 9.91833 10.1033 9.89787C10.1482 9.54539 10.193 9.1929 10.2347 8.84006C10.2456 8.74853 10.2491 8.65556 10.2495 8.56331C10.2512 8.2521 10.2509 7.94125 10.2484 7.63005C10.2484 7.59954 10.2333 7.5518 10.2123 7.54211C9.92775 7.41181 9.64108 7.28654 9.3474 7.15696L9.34634 7.15588ZM15.276 10.3516C15.262 10.3042 15.2501 10.2644 15.2382 10.2245C15.1439 9.90864 15.0332 9.60067 14.8236 9.34186C14.7391 9.23741 14.6403 9.21444 14.5197 9.26792C14.1717 9.42191 13.8237 9.57662 13.4754 9.73025C13.1442 9.8767 12.8123 9.87741 12.4812 9.73168C12.1409 9.58164 11.802 9.42801 11.4606 9.28048C11.4235 9.26433 11.3678 9.26541 11.3303 9.28156C11.0597 9.39894 10.8834 9.61323 10.7744 9.88531C10.7152 10.0332 10.676 10.1897 10.6273 10.343C10.5018 10.3092 10.4201 10.3545 10.4075 10.4883C10.3935 10.6369 10.3819 10.7877 10.3924 10.9359C10.4054 11.1226 10.4657 11.2988 10.5782 11.4507C10.6343 11.5264 10.7019 11.5785 10.8035 11.5289C10.8137 11.5562 10.8228 11.5777 10.8305 11.6C10.9486 11.9493 11.107 12.278 11.3099 12.5839C11.5199 12.9005 11.7662 13.183 12.0799 13.3958C12.622 13.7637 13.1796 13.7993 13.7438 13.454C13.8854 13.3671 14.0193 13.2612 14.1409 13.1467C14.5099 12.7992 14.7724 12.3739 14.9715 11.9058C15.0237 11.7831 15.0693 11.6574 15.1194 11.5289C15.2126 11.5767 15.2834 11.5347 15.3314 11.4614C15.5315 11.1556 15.5995 10.8214 15.507 10.4625C15.473 10.33 15.4085 10.3056 15.2757 10.3516H15.276Z" fill="#888888"/>
</g>
<defs>
<clipPath id="clip0_4004_9194">
<rect width="11.3333" height="14" fill="white" transform="translate(7.30951 5)"/>
</clipPath>
</defs>
</svg>
